<mxfile host="app.diagrams.net" modified="2021-04-23T09:57:03.845Z" agent="5.0 (Windows)" etag="kOeUDQtkh3iJuVEXxvCv" version="14.6.5" type="github">
  <diagram id="AnJYtI_F32tzHtLEM5rv" name="Page-1">
    <mxGraphModel dx="1038" dy="547" grid="1" gridSize="10" guides="1" tooltips="1" connect="1" arrows="1" fold="1" page="1" pageScale="1" pageWidth="827" pageHeight="1169" math="0" shadow="0">
      <root>
        <mxCell id="0" />
        <mxCell id="1" parent="0" />
        <mxCell id="27Y_XzZoTkkW-IObRv7I-1" value="&lt;b&gt;&lt;font style=&quot;font-size: 14px&quot;&gt;Illeszkedési mértéket meghatározó egység&lt;/font&gt;&lt;/b&gt;" style="rounded=0;whiteSpace=wrap;html=1;" vertex="1" parent="1">
          <mxGeometry x="150" y="180" width="140" height="70" as="geometry" />
        </mxCell>
        <mxCell id="27Y_XzZoTkkW-IObRv7I-3" value="&lt;b&gt;&lt;font style=&quot;font-size: 14px&quot;&gt;Fuzzy következtetési gép&lt;br&gt;&lt;/font&gt;&lt;/b&gt;" style="rounded=0;whiteSpace=wrap;html=1;" vertex="1" parent="1">
          <mxGeometry x="320" y="280" width="140" height="70" as="geometry" />
        </mxCell>
        <mxCell id="27Y_XzZoTkkW-IObRv7I-4" value="&lt;b&gt;&lt;font style=&quot;font-size: 14px&quot;&gt;Defuzzifikációs modul&lt;/font&gt;&lt;/b&gt;" style="rounded=0;whiteSpace=wrap;html=1;" vertex="1" parent="1">
          <mxGeometry x="500" y="180" width="140" height="70" as="geometry" />
        </mxCell>
        <mxCell id="27Y_XzZoTkkW-IObRv7I-5" value="&lt;b&gt;&lt;font style=&quot;font-size: 14px&quot;&gt;Fuzzy szabálybázis&lt;/font&gt;&lt;/b&gt;" style="rounded=0;whiteSpace=wrap;html=1;" vertex="1" parent="1">
          <mxGeometry x="320" y="90" width="140" height="70" as="geometry" />
        </mxCell>
        <mxCell id="27Y_XzZoTkkW-IObRv7I-6" value="" style="endArrow=none;html=1;exitX=0;exitY=0.5;exitDx=0;exitDy=0;entryX=0.5;entryY=0;entryDx=0;entryDy=0;" edge="1" parent="1" source="27Y_XzZoTkkW-IObRv7I-5" target="27Y_XzZoTkkW-IObRv7I-1">
          <mxGeometry width="50" height="50" relative="1" as="geometry">
            <mxPoint x="390" y="310" as="sourcePoint" />
            <mxPoint x="440" y="260" as="targetPoint" />
            <Array as="points">
              <mxPoint x="220" y="125" />
            </Array>
          </mxGeometry>
        </mxCell>
        <mxCell id="27Y_XzZoTkkW-IObRv7I-7" value="" style="endArrow=none;html=1;exitX=0.5;exitY=0;exitDx=0;exitDy=0;" edge="1" parent="1" source="27Y_XzZoTkkW-IObRv7I-3" target="27Y_XzZoTkkW-IObRv7I-5">
          <mxGeometry width="50" height="50" relative="1" as="geometry">
            <mxPoint x="390" y="310" as="sourcePoint" />
            <mxPoint x="440" y="260" as="targetPoint" />
          </mxGeometry>
        </mxCell>
        <mxCell id="27Y_XzZoTkkW-IObRv7I-8" value="" style="endArrow=none;html=1;exitX=1;exitY=0.5;exitDx=0;exitDy=0;entryX=0.5;entryY=1;entryDx=0;entryDy=0;" edge="1" parent="1" source="27Y_XzZoTkkW-IObRv7I-3" target="27Y_XzZoTkkW-IObRv7I-4">
          <mxGeometry width="50" height="50" relative="1" as="geometry">
            <mxPoint x="390" y="310" as="sourcePoint" />
            <mxPoint x="440" y="260" as="targetPoint" />
            <Array as="points">
              <mxPoint x="570" y="315" />
            </Array>
          </mxGeometry>
        </mxCell>
        <mxCell id="27Y_XzZoTkkW-IObRv7I-9" value="" style="endArrow=none;html=1;exitX=0.5;exitY=1;exitDx=0;exitDy=0;entryX=0;entryY=0.5;entryDx=0;entryDy=0;" edge="1" parent="1" source="27Y_XzZoTkkW-IObRv7I-1" target="27Y_XzZoTkkW-IObRv7I-3">
          <mxGeometry width="50" height="50" relative="1" as="geometry">
            <mxPoint x="390" y="310" as="sourcePoint" />
            <mxPoint x="440" y="260" as="targetPoint" />
            <Array as="points">
              <mxPoint x="220" y="315" />
            </Array>
          </mxGeometry>
        </mxCell>
        <mxCell id="27Y_XzZoTkkW-IObRv7I-10" value="" style="endArrow=classic;html=1;exitX=1;exitY=0.5;exitDx=0;exitDy=0;" edge="1" parent="1" source="27Y_XzZoTkkW-IObRv7I-4">
          <mxGeometry width="50" height="50" relative="1" as="geometry">
            <mxPoint x="390" y="310" as="sourcePoint" />
            <mxPoint x="730" y="215" as="targetPoint" />
          </mxGeometry>
        </mxCell>
        <mxCell id="27Y_XzZoTkkW-IObRv7I-11" value="" style="endArrow=classic;html=1;entryX=0;entryY=0.5;entryDx=0;entryDy=0;" edge="1" parent="1" target="27Y_XzZoTkkW-IObRv7I-1">
          <mxGeometry width="50" height="50" relative="1" as="geometry">
            <mxPoint x="50" y="215" as="sourcePoint" />
            <mxPoint x="440" y="260" as="targetPoint" />
          </mxGeometry>
        </mxCell>
        <mxCell id="27Y_XzZoTkkW-IObRv7I-12" value="&lt;b&gt;&lt;font style=&quot;font-size: 14px&quot;&gt;Bemenet&lt;/font&gt;&lt;/b&gt;" style="text;html=1;strokeColor=none;fillColor=none;align=center;verticalAlign=middle;whiteSpace=wrap;rounded=0;" vertex="1" parent="1">
          <mxGeometry x="50" y="180" width="70" height="30" as="geometry" />
        </mxCell>
        <mxCell id="27Y_XzZoTkkW-IObRv7I-13" value="&lt;font style=&quot;font-size: 14px&quot;&gt;&lt;b&gt;Kimenet&lt;/b&gt;&lt;/font&gt;" style="text;html=1;strokeColor=none;fillColor=none;align=center;verticalAlign=middle;whiteSpace=wrap;rounded=0;" vertex="1" parent="1">
          <mxGeometry x="640" y="180" width="80" height="30" as="geometry" />
        </mxCell>
      </root>
    </mxGraphModel>
  </diagram>
</mxfile>
